<?xml version="1.0" encoding="iso-8859-1"?>
<!-- Generator: Adobe Illustrator 18.1.1, SVG Export Plug-In . SVG Version: 6.00 Build 0)  -->
<svg version="1.1" id="Capa_1" xmlns="http://www.w3.org/2000/svg" xmlns:xlink="http://www.w3.org/1999/xlink" x="0px" y="0px"
	 viewBox="0 0 225.828 225.828" style="enable-background:new 0 0 225.828 225.828;" xml:space="preserve">
<g>
	<path style="fill:#f3efe0;" d="M211.278,43.78c-8.035,0-14.574,6.534-14.574,14.565c0,2.415,0.611,4.81,1.773,6.944
		c-0.598,1.247-1.525,2.564-2.578,3.65c-1.076,1.114-2.389,2.103-3.629,2.737c-1.74-0.8-3.58-1.205-5.471-1.205
		c-4.652,0-8.975,2.493-11.342,6.524c-1.375,0.142-3.006,0.048-4.477-0.257c-1.344-0.28-2.707-0.767-3.873-1.378
		c0.059-0.711,0.086-1.424,0.086-2.124c0-14.305-11.639-25.941-25.945-25.941c-14.299,0-25.934,11.638-25.934,25.941
		c0,9.78,5.646,18.854,14.414,23.22c-0.244,1.983-0.834,4.325-1.639,6.486c-0.865,2.322-2.045,4.626-3.238,6.326
		c-0.125,0.18-0.246,0.349-0.363,0.509c-0.332-0.023-0.666-0.043-1.008-0.043c-9.037,0-16.389,7.351-16.389,16.384
		c0,0.496,0.028,1.023,0.088,1.604c-1.982,0.889-4.523,1.676-7.025,2.174c-2.598,0.518-5.386,0.768-7.618,0.668
		c-0.366-0.014-0.709-0.035-1.03-0.063c-2.957-4.771-8.229-7.727-13.821-7.727c-1.838,0-3.663,0.322-5.43,0.957
		c-0.745-0.697-1.436-1.555-1.963-2.438c-0.549-0.926-0.983-1.99-1.237-3.027c3.271-3.113,5.143-7.443,5.143-11.927
		c0-5.13-2.335-9.856-6.417-13.012c0.126-1.68,0.616-3.683,1.348-5.508c0.741-1.843,1.787-3.646,2.873-4.956
		c0.335,0.025,0.674,0.043,1.025,0.043c8.047,0,14.595-6.533,14.595-14.564c0-8.036-6.548-14.573-14.595-14.573
		c-8.014,0-14.533,6.538-14.533,14.573c0,4.455,1.996,8.586,5.486,11.377c-0.128,1.674-0.617,3.671-1.347,5.492
		c-0.705,1.753-1.686,3.471-2.764,4.817c-0.791-0.107-1.479-0.158-2.147-0.158c-7.541,0-14.061,5.068-15.939,12.359l-0.022,0.01
		c-1.475,0.636-3.391,1.082-5.256,1.228c-1.753,0.136-3.559,0.009-5.034-0.322c-2.23-6.58-8.344-10.98-15.302-10.98
		C7.253,92.165,0,99.418,0,108.333c0,8.919,7.253,16.175,16.169,16.175c7.662,0,14.271-5.416,15.816-12.917
		c1.445-0.59,3.275-1.005,5.061-1.146c1.677-0.13,3.362-0.021,4.813,0.282c1.974,7.136,8.452,12.091,15.863,12.091
		c1.453,0,2.916-0.199,4.351-0.596c0.842,0.734,1.619,1.666,2.205,2.646c0.619,1.043,1.081,2.232,1.313,3.375
		c-2.648,2.982-4.104,6.793-4.104,10.758c0,8.939,7.266,16.215,16.197,16.215c8.903,0,16.158-7.176,16.257-16.031
		c0.093-0.045,0.188-0.088,0.286-0.135c2.019-0.938,4.676-1.773,7.29-2.295c2.598-0.514,5.389-0.764,7.618-0.666
		c0.529,0.02,1.012,0.055,1.445,0.098c3.14,4.021,7.832,6.32,12.9,6.32c2.162,0,4.271-0.422,6.271-1.258
		c0.166,0.104,0.336,0.215,0.514,0.336c1.66,1.115,3.51,2.785,5.072,4.584c1.559,1.799,2.951,3.863,3.826,5.672
		c0.063,0.125,0.121,0.25,0.178,0.371c-2.205,3.195-3.369,6.916-3.369,10.779c0,10.508,8.547,19.057,19.055,19.057
		c10.51,0,19.059-8.549,19.059-19.057s-8.549-19.057-19.059-19.057c-3.184,0-6.338,0.813-9.143,2.355
		c-0.063-0.039-0.125-0.082-0.188-0.125c-1.66-1.115-3.512-2.787-5.07-4.584c-1.561-1.799-2.953-3.863-3.824-5.672
		c-0.031-0.063-0.061-0.123-0.09-0.184c2.057-2.826,3.143-6.145,3.143-9.615c0-5.316-2.588-10.297-6.934-13.376
		c0.012-0.146,0.025-0.298,0.043-0.454c0.209-2.063,0.824-4.579,1.688-6.899c0.863-2.32,2.045-4.625,3.236-6.324l0.084-0.118
		c1.105,0.142,2.205,0.212,3.275,0.212c6.941,0,13.469-2.704,18.377-7.617c2.383-2.388,4.246-5.15,5.541-8.215
		c1.357-0.128,2.951-0.033,4.385,0.265c1.457,0.305,2.961,0.858,4.166,1.533c0.725,6.608,6.422,11.749,13.082,11.749
		c0.27,0,0.541-0.015,0.809-0.033c0.771,1.088,1.432,2.406,1.875,3.742c0.475,1.441,0.736,3.033,0.732,4.409
		c-3.205,2.431-5.113,6.238-5.113,10.241c0,7.084,5.746,12.846,12.811,12.846c7.074,0,12.832-5.762,12.832-12.846
		c0-6.976-5.607-12.681-12.555-12.83c-0.834-1.108-1.58-2.558-2.063-4.012c-0.514-1.562-0.779-3.271-0.732-4.706
		c2.93-2.516,4.604-6.146,4.604-10c0-2.188-0.557-4.359-1.607-6.291c0.602-1.229,1.518-2.521,2.545-3.585
		c1.014-1.046,2.258-1.996,3.449-2.636c2.119,1.142,4.498,1.745,6.896,1.745c8.02,0,14.547-6.536,14.547-14.569
		C225.827,50.314,219.302,43.78,211.278,43.78z M211.278,65.915c-4.178,0-7.574-3.396-7.574-7.569c0-4.171,3.396-7.565,7.576-7.565
		c4.16,0,7.547,3.395,7.547,7.565C218.827,62.519,215.44,65.915,211.278,65.915z M186.802,77.474c3.416,0,6.195,2.786,6.195,6.21
		c0,3.414-2.779,6.191-6.195,6.191c-3.4,0-6.166-2.777-6.166-6.191C180.636,80.258,183.399,77.474,186.802,77.474z M197.913,121.074
		c-3.203,0-5.811-2.621-5.811-5.846c0-3.217,2.605-5.834,5.811-5.834c3.215,0,5.832,2.617,5.832,5.834
		C203.745,118.453,201.128,121.074,197.913,121.074z M123.483,116.736c5.168,0,9.373,4.209,9.373,9.385
		c0,5.18-4.205,9.395-9.373,9.395c-5.178,0-9.391-4.215-9.391-9.395C114.095,120.945,118.308,116.736,123.483,116.736z
		 M141.251,92.161c-10.438,0-18.934-8.488-18.934-18.922c0-10.444,8.494-18.941,18.934-18.941c10.447,0,18.947,8.499,18.947,18.946
		c0.006,5.038-1.957,9.78-5.523,13.353C151.091,90.185,146.323,92.161,141.251,92.161z M57.727,96.874
		c5.225,0,9.476,4.248,9.476,9.469c0,5.228-4.251,9.479-9.476,9.479c-5.226,0-9.477-4.251-9.477-9.479
		C48.248,101.122,52.499,96.874,57.727,96.874z M73.029,60.772c4.188,0,7.595,3.397,7.595,7.573c0,4.171-3.409,7.565-7.607,7.565
		c-4.147,0-7.521-3.395-7.521-7.565C65.498,64.17,68.875,60.772,73.029,60.772z M77.687,148.223c-5.071,0-9.197-4.135-9.197-9.215
		c0-5.09,4.126-9.229,9.197-9.229c5.104,0,9.258,4.141,9.258,9.229C86.945,144.088,82.792,148.223,77.687,148.223z M16.171,117.512
		c-5.056,0-9.169-4.116-9.169-9.175c0-5.056,4.113-9.168,9.169-9.168c5.051,0,9.161,4.11,9.161,9.164
		C25.328,113.393,21.219,117.512,16.171,117.512z M155.032,175.055c-6.646,0-12.057-5.408-12.057-12.057
		c0-6.646,5.408-12.057,12.057-12.057c6.646,0,12.057,5.408,12.057,12.057S161.681,175.055,155.032,175.055z"/>
</g>
</svg>
